<svg xmlns="http://www.w3.org/2000/svg" xmlns:xlink="http://www.w3.org/1999/xlink" width="1360" height="1760"><g transform="translate(0 0)"><path d="M0 0h1360v1760H0z" fill="#fff"/><path d="M728 40c17.67 0 32 17.9 32 40s-14.33 40-32 40h-96c-17.67 0-32-17.9-32-40s14.33-40 32-40z" stroke="#000" stroke-width="2" fill="#fff"/><use xlink:href="#a" transform="matrix(1,0,0,1,605,45) translate(40.65 38.6)"/><use xlink:href="#b" transform="matrix(1,0,0,1,605,45) translate(57.55 38.6)"/><use xlink:href="#c" transform="matrix(1,0,0,1,605,45) translate(74.45 38.6)"/><use xlink:href="#d" transform="matrix(1,0,0,1,605,45) translate(92.45 38.6)"/><path d="M448 260c17.67 0 32 17.9 32 40s-14.33 40-32 40h-96c-17.67 0-32-17.9-32-40s14.33-40 32-40z" stroke="#000" stroke-width="2" fill="#fff"/><use xlink:href="#e" transform="matrix(1,0,0,1,325,265) translate(44.099999999999994 38.6)"/><use xlink:href="#c" transform="matrix(1,0,0,1,325,265) translate(61 38.6)"/><use xlink:href="#f" transform="matrix(1,0,0,1,325,265) translate(79 38.6)"/><path d="M1008 260c17.67 0 32 17.9 32 40s-14.33 40-32 40h-96c-17.67 0-32-17.9-32-40s14.33-40 32-40z" stroke="#000" stroke-width="2" fill="#fff"/><use xlink:href="#e" transform="matrix(1,0,0,1,885,265) translate(41.599999999999994 38.6)"/><use xlink:href="#c" transform="matrix(1,0,0,1,885,265) translate(58.5 38.6)"/><use xlink:href="#g" transform="matrix(1,0,0,1,885,265) translate(76.5 38.6)"/><use xlink:href="#h" transform="matrix(1,0,0,1,885,265) translate(98.4 38.6)"/><path d="M680 120v70H400v70" stroke="#000" stroke-width="2" fill="none"/><path d="M400 260l-4.64-14.27h9.28z"/><path d="M401.05 260h-2.1L394 244.73h12zm-4.3-13.27l3.25 10.03 3.26-10.03z"/><path d="M680 120v70h280v70" stroke="#000" stroke-width="2" fill="none"/><path d="M960 260l-4.64-14.27h9.28z"/><path d="M961.05 260h-2.1L954 244.73h12zm-4.3-13.27l3.25 10.03 3.26-10.03z"/><path d="M360 510c0 22.1-40.3 40-90 40s-90-17.9-90-40 40.3-40 90-40 90 17.9 90 40z" stroke="#000" stroke-width="2" fill="#fff"/><path d="M400 340v65H270v65" stroke="#000" stroke-width="2" fill="none"/><path d="M270 470l-4.64-14.27h9.28z"/><path d="M271.04 470.03L270 470h-1.05L264 454.74h12zm-4.3-13.3l3.26 10.03 3.26-10.03z"/><path d="M240 510c0 11.05-8.95 20-20 20s-20-8.95-20-20 8.95-20 20-20 20 8.95 20 20z" stroke="#000" stroke-width="2" fill="#ffc374"/><use xlink:href="#i" transform="matrix(1,0,0,1,205,495) translate(9 18.6)"/><path d="M290 510c0 11.05-8.95 20-20 20s-20-8.95-20-20 8.95-20 20-20 20 8.95 20 20z" stroke="#000" stroke-width="2" fill="#ffc374"/><use xlink:href="#i" transform="matrix(1,0,0,1,255,495) translate(9 18.6)"/><path d="M340 510c0 11.05-8.95 20-20 20s-20-8.95-20-20 8.95-20 20-20 20 8.95 20 20z" stroke="#000" stroke-width="2" fill="#ffc374"/><use xlink:href="#i" transform="matrix(1,0,0,1,305,495) translate(9 18.6)"/><path d="M640 510c0 22.1-40.3 40-90 40s-90-17.9-90-40 40.3-40 90-40 90 17.9 90 40z" stroke="#000" stroke-width="2" fill="#fff"/><path d="M520 510c0 11.05-8.95 20-20 20s-20-8.95-20-20 8.95-20 20-20 20 8.95 20 20z" stroke="#000" stroke-width="2" fill="#3aa6dd"/><use xlink:href="#j" transform="matrix(1,0,0,1,485,495) translate(9 18.6)"/><path d="M620 510c0 11.05-8.95 20-20 20s-20-8.95-20-20 8.95-20 20-20 20 8.95 20 20z" stroke="#000" stroke-width="2" fill="#3aa6dd"/><use xlink:href="#j" transform="matrix(1,0,0,1,585,495) translate(9 18.6)"/><path d="M400 340v65h150v65" stroke="#000" stroke-width="2" fill="none"/><path d="M550 470l-4.64-14.27h9.28z"/><path d="M551.04 470.03L550 470h-1.05L544 454.74h12zm-4.3-13.3l3.26 10.03 3.26-10.03z"/><path d="M940 510c0 22.1-40.3 40-90 40s-90-17.9-90-40 40.3-40 90-40 90 17.9 90 40z" stroke="#000" stroke-width="2" fill="#fff"/><path d="M960 340v65H850v65" stroke="#000" stroke-width="2" fill="none"/><path d="M850 470l-4.64-14.27h9.28z"/><path d="M851.04 470.03L850 470h-1.05L844 454.74h12zm-4.3-13.3l3.26 10.03 3.26-10.03z"/><path d="M820 510c0 11.05-8.95 20-20 20s-20-8.95-20-20 8.95-20 20-20 20 8.95 20 20z" stroke="#000" stroke-width="2" fill="#ffc374"/><use xlink:href="#i" transform="matrix(1,0,0,1,785,495) translate(9 18.6)"/><path d="M872.5 510c0 11.05-8.95 20-20 20s-20-8.95-20-20 8.95-20 20-20 20 8.95 20 20z" stroke="#000" stroke-width="2" fill="#ffc374"/><use xlink:href="#i" transform="matrix(1,0,0,1,837.5,495) translate(9 18.6)"/><path d="M925 510c0 11.05-8.95 20-20 20s-20-8.95-20-20 8.95-20 20-20 20 8.95 20 20z" stroke="#000" stroke-width="2" fill="#ffc374"/><use xlink:href="#i" transform="matrix(1,0,0,1,890,495) translate(9 18.6)"/><path d="M1200 510c0 22.1-40.3 40-90 40s-90-17.9-90-40 40.3-40 90-40 90 17.9 90 40z" stroke="#000" stroke-width="2" fill="#fff"/><path d="M1130 510c0 11.05-8.95 20-20 20s-20-8.95-20-20 8.95-20 20-20 20 8.95 20 20z" stroke="#000" stroke-width="2" fill="#3aa6dd"/><use xlink:href="#j" transform="matrix(1,0,0,1,1095,495) translate(9 18.6)"/><path d="M960 340v65h150v65" stroke="#000" stroke-width="2" fill="none"/><path d="M1110 470l-4.64-14.27h9.28z"/><path d="M1111.04 470.03L1110 470h-1.05l-4.96-15.27h12zm-4.3-13.3l3.26 10.03 3.26-10.03z"/><path d="M520 720c0 11.05-8.95 20-20 20s-20-8.95-20-20 8.95-20 20-20 20 8.95 20 20z" stroke="#000" stroke-width="2" fill="#ffc374"/><use xlink:href="#i" transform="matrix(1,0,0,1,485,705) translate(9 18.6)"/><path d="M580 720c0 11.05-8.95 20-20 20s-20-8.95-20-20 8.95-20 20-20 20 8.95 20 20z" stroke="#000" stroke-width="2" fill="#ffc374"/><use xlink:href="#i" transform="matrix(1,0,0,1,545,705) translate(9 18.6)"/><path d="M640 720c0 11.05-8.95 20-20 20s-20-8.95-20-20 8.95-20 20-20 20 8.95 20 20z" stroke="#000" stroke-width="2" fill="#ffc374"/><use xlink:href="#i" transform="matrix(1,0,0,1,605,705) translate(9 18.6)"/><path d="M340 720c0 11.05-8.95 20-20 20s-20-8.95-20-20 8.95-20 20-20 20 8.95 20 20z" stroke="#000" stroke-width="2" fill="#ffc374"/><use xlink:href="#i" transform="matrix(1,0,0,1,305,705) translate(9 18.6)"/><path d="M400 720c0 11.05-8.95 20-20 20s-20-8.95-20-20 8.95-20 20-20 20 8.95 20 20z" stroke="#000" stroke-width="2" fill="#ffc374"/><use xlink:href="#i" transform="matrix(1,0,0,1,365,705) translate(9 18.6)"/><path d="M460 720c0 11.05-8.95 20-20 20s-20-8.95-20-20 8.95-20 20-20 20 8.95 20 20z" stroke="#000" stroke-width="2" fill="#ffc374"/><g><use xlink:href="#i" transform="matrix(1,0,0,1,425,705) translate(9 18.6)"/></g><path d="M760 720c0 11.05-8.95 20-20 20s-20-8.95-20-20 8.95-20 20-20 20 8.95 20 20z" stroke="#000" stroke-width="2" fill="#3aa6dd"/><g><use xlink:href="#j" transform="matrix(1,0,0,1,725,705) translate(9 18.6)"/></g><path d="M820 720c0 11.05-8.95 20-20 20s-20-8.95-20-20 8.95-20 20-20 20 8.95 20 20z" stroke="#000" stroke-width="2" fill="#3aa6dd"/><g><use xlink:href="#j" transform="matrix(1,0,0,1,785,705) translate(9 18.6)"/></g><path d="M880 720c0 11.05-8.95 20-20 20s-20-8.95-20-20 8.95-20 20-20 20 8.95 20 20z" stroke="#000" stroke-width="2" fill="#3aa6dd"/><g><use xlink:href="#j" transform="matrix(1,0,0,1,845,705) translate(9 18.6)"/></g><defs><path d="M20 20c37-66 27-181 29-285h263v20H206l-12 39h92v129h-77c-5 54 25 134-59 113l-5-22c13 2 41 9 41-6v-85h-77v-129h61l11-39H72l-1 126C69-55 61-4 39 39zM132-97h131v-37H132v37zm0-55h131v-34H132v34zm120 93c16 23 44 50 66 68l-16 17c-26-20-48-47-68-73zM69 9c27-19 50-40 67-68l17 13c-19 29-43 53-70 72" id="k"/><use transform="matrix(0.05,0,0,0.05,0,0)" xlink:href="#k" id="a"/><path d="M276 38V21h-96v21h-23v-146h142V38h-23zM76-50C63-63 47-74 31-85c11-32 18-67 26-103H24v-20h36c4-22 6-46 9-70l23 2c-3 24-6 46-10 68h52c-5 60-10 109-30 153l42 38-15 19-37-37C79-6 59 19 35 42L20 23C43 1 61-21 76-50zm212-102c-46 8-101 11-150 14l-3-22 25-1c16-35 32-78 42-119l23 5-41 113 94-8-32-51 19-11 55 94-19 13zM180 1h96v-85h-96V1zM78-188c-5 34-14 65-22 94l30 23c15-35 21-72 25-117H78" id="l"/><use transform="matrix(0.05,0,0,0.05,0,0)" xlink:href="#l" id="b"/><path d="M128-78c23-22-15-43-36-56v-29h43c8 1 7-9 1-11-8-5-14-9-18-15-8 6-10 18-26 16 1-23-4-55 5-70-4-6-19-4-24-8 4 15 3 55 3 78H22l5 10h37C51-92 40-83 19-16c27-41 43-71 57-129l1 200c5-3 13-2 15-8v-175c13 14 17 20 26 42 2 5 6 8 10 8zm56-121c5 14 22 8 19-8-3-18-24-31-45-40 16 19 16 23 26 48zm100-38c5-1 12-10 1-12-6-2-12-5-19-9-7 28-16 49-31 69 23-5 32-26 49-48zm14 40l-16 17H146l5 10h66v55h-69l6 10h63v56h-91l6 10h85v92c3 4 15-1 16-6v-86h93c10 0 10-8 2-12-9-4-15-11-20-17l-17 19h-58v-56h69c8 1 10-9 2-11-8-5-14-9-18-15l-15 16h-38v-55h83c10 1 9-9 1-11-8-5-15-10-19-16" id="m"/><use transform="matrix(0.05,0,0,0.05,0,0)" xlink:href="#m" id="c"/><path d="M184-194c31 62 79 115 134 152l-15 19c-50-36-94-86-124-141l1 113h72v21h-72v72h-23v-72H87v-21h70l1-110C129-103 85-54 35-16L22-35c55-39 102-94 130-159H34v-20h123v-65h23v65h124v20H184" id="n"/><use transform="matrix(0.05,0,0,0.05,0,0)" xlink:href="#n" id="d"/><path d="M140 14c14 0 17-1 17-13v-117H27v-21h130v-48c28 3 32-14 49-26 13-9 23-20 33-31H58v-20h204l15 14c-29 31-62 58-97 83v28h131v21H180V3c5 40-40 37-73 30l-4-23c13 2 22 4 37 4" id="o"/><use transform="matrix(0.05,0,0,0.05,0,0)" xlink:href="#o" id="e"/><path d="M27 0v-27h64v-190l-56 39v-29l58-41h29v221h61V0H27" id="p"/><g id="f"><use transform="matrix(0.05,0,0,0.05,0,0)" xlink:href="#n"/><use transform="matrix(0.05,0,0,0.05,16.900000000000002,0)" xlink:href="#p"/></g><use transform="matrix(0.05,0,0,0.05,0,0)" xlink:href="#n" id="g"/><path d="M101-251c82-7 93 87 43 132L82-64C71-53 59-42 53-27h129V0H18c2-99 128-94 128-182 0-28-16-43-45-43s-46 15-49 41l-32-3c6-41 34-60 81-64" id="q"/><use transform="matrix(0.05,0,0,0.05,0,0)" xlink:href="#q" id="h"/><path d="M205 0l-28-72H64L36 0H1l101-248h38L239 0h-34zm-38-99l-47-123c-12 45-31 82-46 123h93" id="r"/><use transform="matrix(0.05,0,0,0.05,0,0)" xlink:href="#r" id="i"/><path d="M160-131c35 5 61 23 61 61C221 17 115-2 30 0v-248c76 3 177-17 177 60 0 33-19 50-47 57zm-97-11c50-1 110 9 110-42 0-47-63-36-110-37v79zm0 115c55-2 124 14 124-45 0-56-70-42-124-44v89" id="s"/><use transform="matrix(0.05,0,0,0.05,0,0)" xlink:href="#s" id="j"/></defs></g></svg>